<svg xmlns="http://www.w3.org/2000/svg" width="485" height="121"><defs><style>.cls-2,.cls-3{fill-rule:evenodd}.cls-2{fill:#09f}.cls-3{fill:#ffc339}</style></defs><path d="M57.9 69.681a228.061 228.061 0 0 1 42.143 4.192 43.014 43.014 0 0 1-81.889.582A166.335 166.335 0 0 1 57.9 69.681z" fill-rule="evenodd" fill="#007acc"/><path class="cls-2" d="M33.16 61.2a146.4 146.4 0 0 1-15.211 12.632 43.114 43.114 0 0 1 3.774-34.281C25.76 42.647 40.125 54.476 33.16 61.2z"/><path class="cls-3" d="M21.871 39.3a43.009 43.009 0 0 1 78.3 34.136z"/><path class="cls-2" d="M131.717 85.851h3.1V54.672c0-3.888-.288-8.857-.432-12.817h.288l3.744 10.585 10.3 28.226h2.881l10.224-28.226 3.673-10.585h.288c-.216 3.96-.432 8.929-.432 12.817v31.179h3.24V38.4h-4.752l-9.865 27.866c-1.224 3.457-2.376 6.985-3.6 10.513h-.288c-1.224-3.528-2.52-7.056-3.744-10.513L136.4 38.4h-4.68v47.452zm58.032.864c4.536 0 8.713-2.52 12.241-5.328h.216l.288 4.464h2.736V63.745c0-7.417-2.808-13.321-10.945-13.321-5.616 0-10.441 2.736-12.889 4.464l1.44 2.376c2.377-1.728 6.409-4.032 11.017-4.032 6.841 0 8.281 5.689 8.209 10.945-15.409 1.728-22.322 5.4-22.322 13.033 0 6.553 4.536 9.505 10.009 9.505zm.576-2.736c-3.96 0-7.345-1.944-7.345-6.913 0-5.472 4.825-8.785 19.082-10.441v11.737c-4.32 3.673-7.777 5.617-11.737 5.617zm27.215 1.872h3.168V59.785c4.249-4.321 7.2-6.481 11.3-6.481 5.617 0 7.921 3.456 7.921 10.8V85.85h3.171V63.673c0-8.929-3.312-13.249-10.441-13.249-4.752 0-8.352 2.664-11.881 6.192h-.216l-.288-5.328h-2.734v34.563zm47.737.864a19.3 19.3 0 0 0 5.616-1.3l-.864-2.592a11.576 11.576 0 0 1-4.32 1.08c-4.753 0-5.833-2.953-5.833-7.345V54.024h10.009v-2.736h-10.009V41.279h-2.736l-.432 10.009-5.472.288v2.448h5.4v22.25c0 6.193 1.944 10.441 8.641 10.441zm20.591 0c4.537 0 8.713-2.52 12.241-5.328h.216l.288 4.464h2.737V63.745c0-7.417-2.809-13.321-10.945-13.321-5.617 0-10.441 2.736-12.889 4.464l1.44 2.376c2.376-1.728 6.408-4.032 11.017-4.032 6.84 0 8.28 5.689 8.208 10.945-15.409 1.728-22.322 5.4-22.322 13.033 0 6.553 4.541 9.505 10.009 9.505zm.576-2.736c-3.96 0-7.344-1.944-7.344-6.913 0-5.472 4.824-8.785 19.081-10.441v11.737c-4.32 3.673-7.776 5.617-11.737 5.617z"/><path class="cls-3" d="M337.8 86.715c9.217 0 15.194-5.472 15.194-12.745s-4.681-10.225-10.009-12.6l-7.2-3.168c-3.456-1.585-8.209-3.673-8.209-9.145 0-5.185 4.249-8.5 10.513-8.5a15.376 15.376 0 0 1 11.305 4.824l1.873-2.16a18.024 18.024 0 0 0-13.178-5.688c-7.92 0-13.825 4.824-13.825 11.665 0 7.056 5.545 10.009 9.649 11.809l7.2 3.24c4.68 2.088 8.5 3.96 8.5 9.937 0 5.616-4.536 9.5-11.809 9.5a18.663 18.663 0 0 1-13.9-6.409l-2.16 2.3a21.069 21.069 0 0 0 16.056 7.14zm34.2 0a19.3 19.3 0 0 0 5.616-1.3l-.864-2.592a11.576 11.576 0 0 1-4.32 1.08c-4.753 0-5.833-2.953-5.833-7.345V54.024h10.009v-2.736H366.6V41.279h-2.736l-.432 10.009-5.472.288v2.448h5.4v22.25c.003 6.193 1.947 10.441 8.64 10.441zm11.663 14.905c6.192 0 9.648-5.616 11.593-11.449l13.681-38.883H405.7l-7.417 21.746c-.936 2.88-2.088 6.624-3.168 9.649h-.288c-1.3-3.025-2.665-6.769-3.745-9.649l-8.352-21.746h-3.457L393.459 86.5l-.936 3.024c-1.728 5.257-4.608 9.145-8.856 9.145a8.1 8.1 0 0 1-2.809-.576l-.72 2.808a8.794 8.794 0 0 0 3.529.719zm37.007-14.905a6.728 6.728 0 0 0 2.305-.36l-.577-2.592a5.571 5.571 0 0 1-1.3.144c-.864 0-1.512-.72-1.512-2.232v-47.6h-3.168V81.24c.008 3.747 1.448 5.475 4.256 5.475zm25.921 0a19.271 19.271 0 0 0 10.873-3.384l-1.3-2.449a15.306 15.306 0 0 1-9.289 3.1c-7.777 0-12.889-6.265-13.033-14.978h24.914a15.651 15.651 0 0 0 .144-2.592c0-10.153-5.04-15.985-13.249-15.985-7.705 0-15.049 6.912-15.049 18.217s7.136 18.071 15.998 18.071zM433.85 66.409c.72-8.281 5.976-13.249 11.881-13.249 6.193 0 10.153 4.392 10.153 13.249H433.85z"/></svg>